<svg xmlns="http://www.w3.org/2000/svg" width="18.044" height="18.077"><path d="M17.044 13.035v2.42a1.613 1.613 0 01-1.755 1.613 15.963 15.963 0 01-6.961-2.476 15.73 15.73 0 01-4.84-4.84 15.963 15.963 0 01-2.481-6.994A1.613 1.613 0 012.613 1h2.42a1.613 1.613 0 011.613 1.387 10.357 10.357 0 00.565 2.267 1.613 1.613 0 01-.363 1.7L5.823 7.381a12.906 12.906 0 004.84 4.84l1.026-1.021a1.613 1.613 0 011.7-.363 10.357 10.357 0 002.267.565 1.613 1.613 0 011.387 1.637z" fill="none" stroke="#5863f8" stroke-linecap="round" stroke-linejoin="round" stroke-width="2"/></svg>